<?xml version="1.0" encoding="UTF-8"?>
<svg width="32px" height="22px" viewBox="0 0 32 22" version="1.1" xmlns="http://www.w3.org/2000/svg" xmlns:xlink="http://www.w3.org/1999/xlink">
    <!-- Generator: Sketch 56.2 (81672) - https://sketch.com -->
    <title>eye__top</title>
    <desc>Created with Sketch.</desc>
    <g id="Page-1" stroke="none" stroke-width="1" fill="none" fill-rule="evenodd">
        <g id="eye" transform="translate(-4.000000, 0.000000)" fill="#585DB8">
            <g transform="translate(4.000000, 0.000000)" id="eye__top">
                <path d="M18,13.3208091 L18,20 C18,21.1045695 17.1045695,22 16,22 C14.8954305,22 14,21.1045695 14,20 L14,13.3208091 C12.1551855,13.1077324 10.3790353,12.6024406 8.72581347,11.839378 L4.58632213,17.7385653 C3.93232181,18.6705809 2.64722662,18.8971773 1.71389973,18.2450498 L1.69574175,18.2323626 C1.69460904,18.2315711 1.69347712,18.2307786 1.69234599,18.2299848 C0.759005503,17.5750548 0.533309226,16.2875072 1.18823925,15.3541667 L5.18360262,9.66037609 C3.91625114,8.65657493 2.77717311,7.47201413 1.80380509,6.13045674 C1.20464278,5.30465333 0.67531566,4.42788159 0.22230887,3.50950229 C-0.293538764,2.46372594 0.118883237,1.18913504 1.14347919,0.662623833 C2.16807515,0.136112623 3.41685141,0.557060191 3.93269905,1.60283654 C4.27895013,2.30479032 4.68375153,2.975299 5.14217319,3.60712473 C7.67486593,7.09784211 11.6642928,9.195739 16,9.195739 C20.3357072,9.195739 24.3251341,7.09784211 26.8578268,3.60712473 C27.3162485,2.975299 27.7210499,2.30479032 28.067301,1.60283654 C28.5831486,0.557060191 29.8319249,0.136112623 30.8565208,0.662623833 C31.8811168,1.18913504 32.2935388,2.46372594 31.7776911,3.50950229 C31.3246843,4.42788159 30.7953572,5.30465333 30.1961949,6.13045674 C29.148932,7.5738607 27.9098438,8.83552592 26.5255566,9.88585607 L30.3626995,15.3541667 C31.0176295,16.2875072 30.7919332,17.5750548 29.8585927,18.2299848 C29.8574616,18.2307786 29.8563297,18.2315711 29.855197,18.2323626 L29.837039,18.2450498 C28.9037121,18.8971773 27.6186169,18.6705809 26.9646166,17.7385653 L22.932636,11.9925915 C21.3772385,12.6703139 19.7184077,13.1223325 18,13.3208091 Z" transform="translate(16.000000, 11.217860) scale(1, -1) translate(-16.000000, -11.217860) "></path>
            </g>
        </g>
    </g>
</svg>