<?xml version="1.0" encoding="UTF-8"?>
<svg width="22px" height="29px" viewBox="0 0 22 29" version="1.1" xmlns="http://www.w3.org/2000/svg" xmlns:xlink="http://www.w3.org/1999/xlink">
    <!-- Generator: Sketch 56.2 (81672) - https://sketch.com -->
    <title>padlock</title>
    <desc>Created with Sketch.</desc>
    <g id="Page-1" stroke="none" stroke-width="1" fill="none" fill-rule="evenodd">
        <g id="padlock" transform="translate(-9.000000, -5.000000)" fill="#121726">
            <path d="M11,19 L11,13.5 C11,8.80557963 15.0294373,5 20,5 C24.9705627,5 29,8.80557963 29,13.5 L29,19 L30,19 C30.5522847,19 31,19.4477153 31,20 L31,33 C31,33.5522847 30.5522847,34 30,34 L10,34 C9.44771525,34 9,33.5522847 9,33 L9,20 C9,19.4477153 9.44771525,19 10,19 L11,19 Z M14,19 L26,19 L26,13.5 C26,10.4624339 23.3137085,8 20,8 C16.6862915,8 14,10.4624339 14,13.5 L14,19 Z"></path>
        </g>
    </g>
</svg>