<?xml version="1.0" encoding="UTF-8"?>
<svg width="32px" height="13px" viewBox="0 0 32 13" version="1.1" xmlns="http://www.w3.org/2000/svg" xmlns:xlink="http://www.w3.org/1999/xlink">
    <!-- Generator: Sketch 55.2 (78181) - https://sketchapp.com -->
    <title>eye__bottom</title>
    <desc>Created with Sketch.</desc>
    <g id="Page-1" stroke="none" stroke-width="1" fill="none" fill-rule="evenodd">
        <g id="eye" transform="translate(-4.000000, -19.000000)" fill="#585db8" fill-rule="nonzero">
            <g transform="translate(4.000000, 0.000000)" id="eye__bottom">
                <path d="M0.22230887,22.0737829 C0.67531566,22.9921622 1.20464278,23.8689339 1.80380509,24.6947373 C5.11178226,29.2540008 10.3336611,32 16,32 C21.6663389,32 26.8882177,29.2540008 30.1961949,24.6947373 C30.7953572,23.8689339 31.3246843,22.9921622 31.7776911,22.0737829 C32.2935388,21.0280065 31.8811168,19.7534156 30.8565208,19.2269044 C29.8319249,18.7003932 28.5831486,19.1213408 28.067301,20.1671171 C27.7210499,20.8690709 27.3162485,21.5395796 26.8578268,22.1714053 C24.3251341,25.6621227 20.3357072,27.7600196 16,27.7600196 C11.6642928,27.7600196 7.67486593,25.6621227 5.14217319,22.1714053 C4.68375153,21.5395796 4.27895013,20.8690709 3.93269905,20.1671171 C3.41685141,19.1213408 2.16807515,18.7003932 1.14347919,19.2269044 C0.118883237,19.7534156 -0.293538764,21.0280065 0.22230887,22.0737829 Z"></path>
            </g>
        </g>
    </g>
</svg>